<?xml version="1.0" standalone="no"?><!DOCTYPE svg PUBLIC "-//W3C//DTD SVG 1.1//EN" "http://www.w3.org/Graphics/SVG/1.1/DTD/svg11.dtd"><svg t="1553942139090" class="icon" style="" viewBox="0 0 1024 1024" version="1.1" xmlns="http://www.w3.org/2000/svg" p-id="5788" xmlns:xlink="http://www.w3.org/1999/xlink" width="16" height="16"><defs><style type="text/css"></style></defs><path d="M213.4 168.7l601.4-6.2c36.3-0.4 71.4 12.9 98.4 37.2 17.4 15.6 18.8 42.4 3.2 59.8-2.7 3-5.8 5.6-9.3 7.7-89.2 54.9-150.3 90.5-183.4 106.7-109.5 53.7-193.4 144.3-218.4 138C464.5 501.7 324.5 411.7 85.1 242l8.3-11.5c28-38.3 72.5-61.3 120-61.8z" fill="#B5F7F7" p-id="5789"></path><path d="M212 147h600c91.1 0 165 73.9 165 165v400c0 91.1-73.9 165-165 165H212c-91.1 0-165-73.9-165-165V312c0-91.1 73.9-165 165-165z m0 30c-74.6 0-135 60.4-135 135v400c0 74.6 60.4 135 135 135h600c74.6 0 135-60.4 135-135V312c0-74.6-60.4-135-135-135H212z" fill="#009FA8" p-id="5790"></path><path d="M616.5 460.2l-109.2 69.6-106.6-68L98 788.9l-22-20.3 299-323.2L68 249.6l16.2-25.2 423.1 269.8 423.1-269.8 16.1 25.2-304.1 194 323.7 324.6-21.2 21.1z" fill="#009FA8" p-id="5791"></path></svg>