<?xml version="1.0" standalone="no"?><!DOCTYPE svg PUBLIC "-//W3C//DTD SVG 1.1//EN" "http://www.w3.org/Graphics/SVG/1.1/DTD/svg11.dtd"><svg t="1553941959184" class="icon" style="" viewBox="0 0 1024 1024" version="1.1" xmlns="http://www.w3.org/2000/svg" p-id="1698" xmlns:xlink="http://www.w3.org/1999/xlink" width="16" height="16"><defs><style type="text/css"></style></defs><path d="M978.5 409.6H455.1c-25.1 0-45.5 20.3-45.5 45.5v113.7c0 25.1 20.3 45.5 45.5 45.5h318.6c25.1 0 45.5 20.4 45.5 45.5v22.6c0 75.4-61.2 136.5-136.5 136.5H250.3c-25.1 0-45.5-20.4-45.5-45.5V341.2c0-75.5 61.2-136.5 136.5-136.5h637c25.1 0 45.5-20.3 45.5-45.5l0.1-113.6c0-25.1-20.3-45.5-45.5-45.5H341.3C152.9 0 0 152.9 0 341.3v637.2c0 25.1 20.4 45.5 45.5 45.5h671.3c169.6 0 307.2-137.5 307.2-307.2V455.1c0-25.1-20.4-45.5-45.5-45.5z" p-id="1699" fill="#d81e06"></path></svg>