<?xml version="1.0" standalone="no"?><!DOCTYPE svg PUBLIC "-//W3C//DTD SVG 1.1//EN" "http://www.w3.org/Graphics/SVG/1.1/DTD/svg11.dtd"><svg t="1553942292797" class="icon" style="" viewBox="0 0 1024 1024" version="1.1" xmlns="http://www.w3.org/2000/svg" p-id="6521" xmlns:xlink="http://www.w3.org/1999/xlink" width="16" height="16"><defs><style type="text/css"></style></defs><path d="M307.869281 580.043573c-40.156863 0-79.198257-15.616558-109.315904-45.734205L45.734205 382.605664c-60.235294-60.235294-60.235294-159.511983 0-219.747276L162.858388 45.734205c60.235294-60.235294 159.511983-60.235294 219.747276 0L535.424837 198.553377c60.235294 60.235294 60.235294 159.511983 0 219.747277L418.300654 535.424837c-30.117647 30.117647-70.27451 44.618736-110.431373 44.618736zM272.174292 94.814815c-15.616558 0-31.233115 5.577342-42.3878 17.847494L112.662309 229.786492c-11.154684 11.154684-17.847495 26.771242-17.847494 42.3878s6.69281 31.233115 17.847494 42.3878L265.481481 468.496732c23.424837 23.424837 62.466231 23.424837 85.891068 0L468.496732 351.372549c23.424837-23.424837 23.424837-62.466231 0-85.891068L314.562092 112.662309c-11.154684-12.270153-26.771242-17.847495-42.3878-17.847494zM751.825708 1024c-41.272331 0-80.313725-15.616558-109.315904-45.734205L489.690632 825.446623c-29.002179-29.002179-45.734205-68.043573-45.734205-109.315904s15.616558-80.313725 45.734205-109.315904l117.124183-117.124183c60.235294-60.235294 159.511983-60.235294 219.747277 0l152.819172 152.819172c60.235294 60.235294 60.235294 159.511983 0 219.747277L862.257081 979.381264c-30.117647 29.002179-69.159041 44.618736-110.431373 44.618736z m-35.694989-485.228758c-15.616558 0-31.233115 5.577342-42.3878 17.847494L556.618736 673.742919c-11.154684 11.154684-17.847495 26.771242-17.847494 42.3878s6.69281 31.233115 17.847494 42.3878l152.819172 152.819172c11.154684 11.154684 26.771242 17.847495 42.3878 17.847494s31.233115-6.69281 42.3878-17.847494l117.124183-117.124183c11.154684-11.154684 17.847495-26.771242 17.847494-42.3878s-6.69281-31.233115-17.847494-42.3878L758.518519 556.618736c-11.154684-12.270153-26.771242-17.847495-42.3878-17.847494z" p-id="6522"></path><path d="M614.623094 690.474946L339.102397 414.954248c-21.1939-21.1939-21.1939-54.657952 0-75.851851 21.1939-21.1939 54.657952-21.1939 75.851851 0l275.520698 275.520697c21.1939 21.1939 21.1939 54.657952 0 75.851852-21.1939 21.1939-54.657952 21.1939-75.851852 0z" p-id="6523"></path></svg>