<?xml version="1.0" standalone="no"?><!DOCTYPE svg PUBLIC "-//W3C//DTD SVG 1.1//EN" "http://www.w3.org/Graphics/SVG/1.1/DTD/svg11.dtd"><svg t="1553942080711" class="icon" style="" viewBox="0 0 1024 1024" version="1.1" xmlns="http://www.w3.org/2000/svg" p-id="3819" xmlns:xlink="http://www.w3.org/1999/xlink" width="16" height="16"><defs><style type="text/css"></style></defs><path d="M387.84 480.426667c42.026667-2.56 84.266667 0.64 125.44 9.813333 45.013333 9.386667 87.466667 28.16 124.586667 55.253333 20.693333 15.36 38.4 34.56 51.84 56.32 12.373333 20.906667 19.413333 44.586667 20.693333 68.906667 0.64 34.986667-10.453333 69.12-31.36 97.28-21.333333 29.013333-48.426667 53.12-79.573333 71.253333-72.106667 41.173333-154.666667 61.226667-237.653334 57.6-53.12-1.28-105.386667-13.013333-153.813333-34.56-39.893333-17.066667-74.453333-45.013333-99.413333-80.426666-21.333333-31.146667-29.653333-69.333333-23.04-106.453334 7.68-36.48 26.24-69.76 53.333333-95.36 23.893333-23.253333 51.413333-42.453333 81.493333-56.96 52.48-25.173333 109.226667-39.68 167.466667-42.666666z m-13.653333 83.413333c-19.2 1.28-38.186667 5.333333-56.106667 12.16-40.106667 14.72-73.386667 43.733333-93.653333 81.493333-11.306667 21.546667-16.426667 45.866667-14.933334 70.186667 1.92 28.586667 13.44 55.68 32.853334 76.8 15.573333 17.066667 34.773333 30.293333 56.32 38.613333 49.28 18.773333 104.32 16 151.68-7.466666 38.186667-18.133333 68.053333-49.92 83.84-88.96 10.666667-27.52 11.52-58.026667 2.346666-86.186667-7.04-20.906667-19.2-39.893333-35.413333-54.826667a169.390933 169.390933 0 0 0-126.933333-41.813333" fill="#FFFFFF" p-id="3820"></path><path d="M409.6 668.8c10.453333-2.56 21.12 3.413333 24.106667 13.653333 3.2 10.24-2.346667 21.12-12.586667 24.746667-10.026667 3.626667-21.333333-1.28-25.386667-11.306667-1.92-5.333333-1.493333-11.306667 1.066667-16.426666 2.773333-4.906667 7.253333-8.746667 12.8-10.666667z m-89.813333 20.693333c13.866667-1.92 28.16 1.92 39.04 10.88 9.173333 7.466667 15.146667 18.133333 16.64 29.866667 1.92 16.853333-4.266667 33.92-16.853334 45.44-8.746667 8.106667-19.84 13.226667-31.786666 14.72-13.226667 1.706667-26.666667-1.92-37.12-10.026667-9.173333-7.04-15.573333-17.493333-17.493334-29.013333-2.56-16.213333 2.56-32.64 13.866667-44.586667 8.96-9.386667 20.693333-15.36 33.706667-17.28z m0 0" fill="#FFFFFF" p-id="3821"></path><path d="M713.813333 63.36c1.28-0.426667 2.773333-0.426667 4.053334-0.426667 13.866667 0.213333 27.52 0 41.386666 0 3.626667 1.066667 7.253333 1.493333 10.88 1.28 5.12 1.28 10.453333 1.28 15.573334 2.56 4.48 0.426667 8.746667 1.28 13.013333 2.56 8.746667 1.493333 17.28 4.053333 25.6 7.253334 18.346667 5.546667 36.053333 13.226667 52.693333 22.613333 6.186667 2.56 11.093333 7.68 17.066667 10.88 3.413333 1.706667 5.973333 4.48 9.6 6.186667 10.88 7.893333 21.12 16.64 30.72 26.453333 2.346667 2.773333 5.76 4.693333 8.106667 7.68 3.626667 4.48 8.32 7.893333 11.733333 12.586667 2.346667 3.413333 5.333333 5.973333 7.893333 9.173333 10.026667 13.013333 18.986667 26.88 26.453334 41.386667 4.48 7.68 8.32 15.573333 11.733333 23.68 4.48 10.453333 8.32 21.12 11.306667 32.213333 5.76 19.626667 9.6 39.893333 11.093333 60.373333 1.92 29.653333-0.426667 59.52-7.253333 88.533334-1.28 9.173333-4.693333 17.706667-9.813334 25.386666-10.666667 14.08-29.866667 18.986667-45.866666 11.733334-14.72-6.826667-23.893333-21.973333-22.826667-38.186667 1.066667-7.04 2.773333-13.866667 4.693333-20.693333 0.853333-5.973333 2.773333-11.946667 2.986667-18.133334 2.773333-18.346667 2.773333-37.12 0.426667-55.466666-1.706667-12.16-4.48-23.893333-8.106667-35.626667-2.346667-5.546667-3.413333-11.733333-5.973333-17.28-4.48-9.6-8.96-19.2-14.293334-28.373333-4.053333-5.333333-6.826667-11.733333-11.306666-16.853334-3.626667-4.053333-6.613333-8.746667-10.026667-13.013333-8.533333-9.386667-17.706667-18.133333-27.52-26.026667-10.666667-8.746667-21.973333-16.426667-34.133333-23.04-4.906667-2.773333-10.026667-5.12-15.36-6.826666-6.613333-3.413333-14.08-5.12-20.906667-8.106667-7.466667-2.133333-14.933333-3.626667-22.4-5.76-10.453333-1.493333-20.906667-2.346667-31.573333-2.773333-9.386667-0.64-18.773333-0.213333-28.16 1.28-7.893333 1.066667-16 0-23.68-2.56-5.333333-1.92-10.026667-5.12-13.653334-9.386667-3.626667-2.133333-3.84-6.613333-5.973333-10.026667-2.773333-4.053333-4.053333-8.96-3.84-13.866666-0.213333-4.053333 0-8.32 0.853333-12.373334 3.84-14.72 16.426667-25.6 31.36-27.733333 4.693333-1.066667 9.173333 0.426667 13.44-1.28z m0 0" fill="#FFA21F" p-id="3822"></path><path d="M719.786667 202.026667c9.813333-0.853333 20.053333 0 29.866666-0.426667 4.266667 0.213333 8.32 0.64 12.373334 1.92 10.666667 1.706667 21.333333 4.693333 31.36 8.533333 9.813333 4.266667 19.2 9.386667 27.733333 15.786667 5.76 3.2 10.666667 7.893333 16.213333 11.733333 7.68 8.32 14.933333 17.493333 22.186667 26.24 15.146667 22.186667 24.106667 48.213333 25.813333 75.093334 0.426667 9.6 0.213333 19.2-0.64 28.8-0.64 13.866667-5.333333 27.306667-13.866666 38.4-7.893333 7.253333-18.56 10.666667-29.226667 9.173333-8.746667-1.28-16.64-6.186667-21.973333-13.226667-5.333333-7.253333-7.68-16.426667-6.613334-25.386666 1.066667-5.546667 2.133333-10.88 3.2-16.426667 4.266667-31.146667-9.813333-62.08-36.053333-79.573333-10.24-6.4-21.76-10.666667-33.92-12.586667-8.106667-0.426667-16.213333-0.213333-24.32 0.213333-8.746667 0-17.066667-3.2-23.466667-9.173333-4.693333-5.12-8.106667-11.093333-10.026666-17.706667-1.706667-8.96 0-18.133333 4.906666-25.813333 6.826667-8.746667 16-14.506667 26.453334-15.573333z m0 0" fill="#FFA21F" p-id="3823"></path><path d="M401.28 209.28c23.893333-2.986667 48.213333 3.2 67.84 17.28 13.866667 10.666667 23.68 25.6 27.946667 42.453333 2.56 11.306667 3.2 22.826667 1.92 34.346667-1.706667 12.16-4.266667 24.106667-7.68 35.84-2.773333 8.32-4.266667 17.28-4.48 26.026667 0.213333 3.413333 2.986667 5.973333 6.4 6.4 7.04-0.426667 14.08-2.346667 20.266666-5.546667 15.786667-7.253333 31.36-14.72 47.146667-21.973333 17.28-7.466667 35.2-13.653333 53.546667-18.346667 21.973333-5.973333 45.013333-7.893333 67.626666-5.546667 18.986667 1.92 36.693333 10.453333 49.92 24.32 13.866667 16.426667 21.546667 37.12 21.76 58.453334 1.28 22.613333-2.346667 45.013333-10.453333 66.133333-4.906667 8.32-6.826667 17.92-5.333333 27.306667 2.346667 6.186667 7.893333 10.453333 14.293333 11.306666 27.093333 4.053333 52.906667 14.72 75.093333 30.506667 16.426667 12.16 29.653333 28.16 38.4 46.72 10.88 24.533333 14.293333 51.626667 9.6 78.08-6.4 34.986667-20.693333 68.053333-42.026666 96.64-34.56 46.933333-78.72 86.186667-129.493334 114.773333-72.32 41.173333-152.106667 68.053333-234.666666 79.146667-82.56 12.373333-166.826667 7.04-247.253334-15.573333-48-13.866667-92.8-37.333333-131.626666-68.906667-36.266667-29.226667-63.573333-68.266667-78.506667-112.426667-14.293333-47.786667-15.146667-98.346667-2.773333-146.56 14.72-57.386667 39.466667-111.786667 72.96-160.426666 39.466667-58.666667 87.466667-110.933333 142.506666-155.306667 24.96-20.053333 51.413333-37.76 79.36-52.906667 30.08-16.853333 63.36-27.946667 97.706667-32.213333z m-13.44 271.146667c-58.026667 3.2-114.986667 17.706667-167.466667 42.666666C190.293333 537.6 162.56 556.8 138.666667 580.053333c-27.093333 25.6-45.653333 58.88-53.333334 95.36-6.613333 37.12 1.706667 75.306667 23.04 106.453334 25.173333 35.413333 59.52 63.36 99.413334 80.426666 48.426667 21.546667 100.906667 33.28 153.813333 34.56 82.986667 3.626667 165.546667-16.426667 237.653333-57.6 31.146667-18.133333 58.24-42.24 79.573334-71.253333 20.906667-28.16 32-62.293333 31.36-97.28-1.066667-24.32-8.32-48-20.693334-68.906667-13.653333-21.973333-31.146667-40.96-51.84-56.32-37.12-26.88-79.573333-45.653333-124.586666-55.253333-40.96-9.173333-83.2-12.586667-125.226667-9.813333" fill="#D81E06" p-id="3824"></path><path d="M374.186667 563.84c46.08-4.053333 91.946667 10.88 126.72 41.6 16.213333 14.933333 28.373333 33.706667 35.413333 54.826667 9.173333 28.16 8.32 58.666667-2.346667 86.186666-15.786667 39.253333-45.653333 71.04-83.84 88.96-47.36 23.68-102.186667 26.24-151.68 7.466667-21.546667-8.32-40.746667-21.546667-56.106666-38.613333-19.2-21.12-30.933333-48.213333-32.853334-76.8-1.493333-24.32 3.84-48.64 14.933334-70.186667 20.266667-37.76 53.546667-66.56 93.653333-81.493333 18.133333-6.4 36.906667-10.666667 56.106667-11.946667z m35.413333 104.96c-9.813333 4.693333-14.08 16.213333-9.813333 26.24 4.266667 10.026667 15.573333 14.72 25.813333 10.88 10.24-3.84 15.36-14.933333 12.16-25.386667-4.693333-10.666667-17.066667-16-28.16-11.733333z m-89.813333 20.693333c-12.8 1.706667-24.746667 7.893333-33.493334 17.28-11.306667 11.733333-16.64 28.373333-13.866666 44.586667 1.92 11.52 8.106667 21.973333 17.493333 29.013333 10.666667 8.106667 23.893333 11.733333 37.12 10.026667 11.946667-1.493333 23.04-6.613333 31.786667-14.72 12.586667-11.52 18.773333-28.373333 16.853333-45.44-1.493333-11.733333-7.466667-22.4-16.64-29.866667-11.306667-8.96-25.386667-12.8-39.253333-10.88" fill="#2C2C2C" p-id="3825"></path></svg>